<svg xmlns="http://www.w3.org/2000/svg" viewBox="0 0 480 340" width="480" height="340">
  <rect x="20" y="20" width="440" height="300" rx="14" fill="#1a1a1a" stroke="#2a2a2a"/>
  <line x1="20" y1="60" x2="460" y2="60" stroke="#2a2a2a"/>
  <circle cx="44" cy="40" r="5" fill="#ff5252"/>
  <circle cx="62" cy="40" r="5" fill="#666666"/>
  <circle cx="80" cy="40" r="5" fill="#00c853"/>
  <g font-family="'SF Mono', Menlo, monospace" font-size="13">
    <text x="44" y="100" fill="#666666">1</text><text x="70" y="100" fill="#e50914">const</text><text x="120" y="100" fill="#f5f5f5">bc = bluechip.connect(key)</text>
    <text x="44" y="130" fill="#666666">2</text><text x="70" y="130" fill="#e50914">await</text><text x="120" y="130" fill="#f5f5f5">bc.orders.place({</text>
    <text x="44" y="160" fill="#666666">3</text><text x="90" y="160" fill="#a0a0a0">symbol:</text><text x="160" y="160" fill="#00c853">"ORION"</text><text x="222" y="160" fill="#f5f5f5">,</text>
    <text x="44" y="190" fill="#666666">4</text><text x="90" y="190" fill="#a0a0a0">side:</text><text x="140" y="190" fill="#00c853">"BUY"</text><text x="186" y="190" fill="#f5f5f5">,</text>
    <text x="44" y="220" fill="#666666">5</text><text x="90" y="220" fill="#a0a0a0">qty:</text><text x="132" y="220" fill="#f5f5f5">10</text>
    <text x="44" y="250" fill="#666666">6</text><text x="70" y="250" fill="#f5f5f5">})</text>
    <text x="44" y="290" fill="#00c853">✓ order placed in 8ms</text>
  </g>
</svg>
